<svg width="45" height="45" viewBox="0 0 45 45" fill="none" xmlns="http://www.w3.org/2000/svg">
<path d="M40.9903 21.9648C40.9903 23.2305 40.0267 24.2219 38.9346 24.2219H36.8788L36.9238 35.4859C36.9238 35.6758 36.911 35.8656 36.8917 36.0555V37.1875C36.8917 38.7414 35.7418 40 34.322 40H33.2942C33.2235 40 33.1528 40 33.0822 39.993C32.9922 40 32.9023 40 32.8123 40H30.7245H29.1827C27.763 40 26.613 38.7414 26.613 37.1875V35.5V31C26.613 29.7555 25.6944 28.75 24.5573 28.75H20.4458C19.3088 28.75 18.3901 29.7555 18.3901 31V35.5V37.1875C18.3901 38.7414 17.2402 40 15.8205 40H14.2787H12.2293C12.133 40 12.0366 39.993 11.9403 39.9859C11.8632 39.993 11.7861 40 11.709 40H10.6811C9.26138 40 8.11146 38.7414 8.11146 37.1875V29.3125C8.11146 29.2492 8.11146 29.1789 8.11789 29.1156V24.2219H6.05573C4.89938 24.2219 4 23.2375 4 21.9648C4 21.332 4.19272 20.7695 4.64242 20.2773L21.114 4.5625C21.5636 4.07031 22.0776 4 22.5273 4C22.977 4 23.4909 4.14062 23.8763 4.49219L40.2836 20.2773C40.7976 20.7695 41.0545 21.332 40.9903 21.9648Z" fill="white"/>
</svg>
