<svg width="45" height="46" viewBox="0 0 45 46" fill="none" xmlns="http://www.w3.org/2000/svg">
<g clip-path="url(#clip0_39_100)">
<path d="M31.5431 19.5503C31.5431 22.1723 30.696 24.5943 29.2689 26.5593L36.467 33.7969C37.1777 34.5109 37.1777 35.6705 36.467 36.3846C35.7563 37.0986 34.6021 37.0986 33.8913 36.3846L26.6932 29.147C24.7374 30.5865 22.3266 31.432 19.7169 31.432C13.184 31.432 7.89062 26.1138 7.89062 19.5503C7.89062 12.9868 13.184 7.66864 19.7169 7.66864C26.2498 7.66864 31.5431 12.9868 31.5431 19.5503ZM19.7169 27.7761C20.7921 27.7761 21.8567 27.5633 22.8501 27.1499C23.8434 26.7365 24.746 26.1306 25.5063 25.3668C26.2665 24.603 26.8696 23.6962 27.2811 22.6982C27.6925 21.7002 27.9043 20.6305 27.9043 19.5503C27.9043 18.4701 27.6925 17.4004 27.2811 16.4024C26.8696 15.4044 26.2665 14.4976 25.5063 13.7338C24.746 12.97 23.8434 12.3641 22.8501 11.9507C21.8567 11.5373 20.7921 11.3245 19.7169 11.3245C18.6417 11.3245 17.577 11.5373 16.5837 11.9507C15.5904 12.3641 14.6878 12.97 13.9275 13.7338C13.1672 14.4976 12.5642 15.4044 12.1527 16.4024C11.7412 17.4004 11.5295 18.4701 11.5295 19.5503C11.5295 20.6305 11.7412 21.7002 12.1527 22.6982C12.5642 23.6962 13.1672 24.603 13.9275 25.3668C14.6878 26.1306 15.5904 26.7365 16.5837 27.1499C17.577 27.5633 18.6417 27.7761 19.7169 27.7761Z" fill="white"/>
</g>
<defs>
<clipPath id="clip0_39_100">
<rect width="45" height="46" rx="22.5" fill="white"/>
</clipPath>
</defs>
</svg>
