<svg width="35" height="35" viewBox="0 0 35 35" fill="none" xmlns="http://www.w3.org/2000/svg">
<g clip-path="url(#clip0_39_839)">
<path d="M15.0732 0.0956993C14.793 0.218746 14.5127 0.560543 14.4307 0.874996C14.3965 1.01171 14.1777 1.91406 13.9385 2.87109C13.7061 3.82812 13.4941 4.66211 13.46 4.71679C13.4326 4.77832 13.2002 4.89453 12.9404 4.99023C12.6875 5.0791 12.1816 5.28418 11.8262 5.44824C11.4707 5.6123 11.1289 5.73535 11.0742 5.72168C11.0195 5.70801 10.2539 5.25683 9.37891 4.73047C8.50391 4.19726 7.68359 3.74609 7.55371 3.71875C7.06836 3.62988 6.89062 3.75976 5.25 5.38672C4.39551 6.23437 3.64355 7.03418 3.58203 7.16406C3.34961 7.65625 3.43848 7.88183 4.56641 9.76172L5.59863 11.4844L5.37305 11.9834C5.25 12.25 5.0791 12.6875 4.9834 12.9473C4.88086 13.2412 4.77148 13.4395 4.68262 13.4736C4.60742 13.5078 3.6709 13.7471 2.60449 14.0068C0.642578 14.4853 0.451172 14.5537 0.177734 14.9297C0.0410156 15.1143 0.0341797 15.2031 0.0341797 17.5C0.0341797 19.7969 0.0410156 19.8857 0.177734 20.0703C0.451172 20.4395 0.642578 20.5146 2.60449 20.9932C3.6709 21.2529 4.60742 21.4922 4.68262 21.5264C4.77148 21.5605 4.88086 21.752 4.9834 22.0527C5.0791 22.3125 5.27734 22.8047 5.44141 23.1533L5.72852 23.7754L4.79883 25.3203C4.0332 26.6055 3.86914 26.9268 3.8418 27.2002C3.82129 27.4121 3.84863 27.5967 3.91699 27.7266C4.09473 28.0547 7.18457 31.0898 7.40332 31.1445C7.86133 31.2539 8.12793 31.1445 9.7002 30.2012L11.2314 29.2783L11.8535 29.5654C12.1953 29.7227 12.6875 29.9277 12.9473 30.0166C13.2412 30.1191 13.4395 30.2285 13.4736 30.3174C13.5078 30.3926 13.7471 31.3291 14.0068 32.3955C14.4854 34.3574 14.5605 34.5488 14.9297 34.8223C15.1143 34.959 15.2031 34.9658 17.5 34.9658C19.7969 34.9658 19.8857 34.959 20.0703 34.8223C20.4395 34.5488 20.5146 34.3574 20.9932 32.3955C21.2529 31.3291 21.4922 30.3926 21.5264 30.3174C21.5605 30.2285 21.752 30.1191 22.0527 30.0098C22.3125 29.9209 22.8115 29.7158 23.167 29.5518L23.8096 29.251L25.416 30.2148C26.9336 31.1172 27.043 31.1719 27.3779 31.1719C27.8564 31.1719 27.959 31.0898 29.709 29.3193C31.2266 27.7812 31.3701 27.583 31.2812 27.1182C31.2607 26.9951 30.8096 26.1816 30.2764 25.2998L29.3193 23.7002L29.627 23.0098C29.791 22.627 29.9824 22.1553 30.0576 21.9502C30.1328 21.7314 30.2354 21.5605 30.3174 21.5264C30.3926 21.4922 31.3291 21.2529 32.3955 20.9932C34.3574 20.5146 34.5488 20.4395 34.8223 20.0703C34.959 19.8857 34.9658 19.7969 34.9658 17.5C34.9658 15.2031 34.959 15.1143 34.8223 14.9297C34.5488 14.5605 34.3574 14.4853 32.3955 14.0068C31.3291 13.7471 30.3926 13.5078 30.3174 13.4736C30.2285 13.4395 30.1191 13.2412 30.0166 12.9473C29.9209 12.6875 29.7295 12.2158 29.5859 11.8945C29.4355 11.5801 29.333 11.2656 29.3467 11.2041C29.3672 11.1426 29.7705 10.4385 30.2422 9.64551C31.2744 7.93652 31.3359 7.7998 31.2744 7.42383C31.2266 7.1709 31.0762 6.99316 29.6748 5.58496C28.8271 4.72363 28.041 3.95801 27.9316 3.87597C27.7881 3.77344 27.624 3.73242 27.3779 3.72558C27.043 3.72558 26.9404 3.78027 25.4023 4.69629C24.5068 5.23633 23.7549 5.67383 23.7207 5.67383C23.6934 5.67383 23.4062 5.55762 23.0918 5.41406C22.7842 5.27051 22.3125 5.0791 22.0527 4.9834C21.7588 4.88086 21.5605 4.77148 21.5264 4.68262C21.4922 4.60742 21.2529 3.6709 20.9932 2.60449C20.5146 0.642574 20.4463 0.451168 20.0703 0.177731C19.8926 0.0410118 19.7832 0.0341759 17.582 0.020504C15.7705 0.00683212 15.2305 0.020504 15.0732 0.0956993ZM18.4775 10.3975C21.3145 10.8213 23.6045 12.8174 24.3906 15.5518C25.4844 19.3252 23.2627 23.29 19.4482 24.3906C15.6748 25.4844 11.71 23.2627 10.6094 19.4482C9.31055 14.957 12.7217 10.3906 17.418 10.3291C17.7324 10.3223 18.2109 10.3564 18.4775 10.3975Z" fill="white"/>
</g>
<defs>
<clipPath id="clip0_39_839">
<rect width="35" height="35" fill="white"/>
</clipPath>
</defs>
</svg>
