<svg width="45" height="46" viewBox="0 0 45 46" fill="none" xmlns="http://www.w3.org/2000/svg">
<g clip-path="url(#clip0_39_103)">
<path d="M27 15C27 13.6739 26.4732 12.4021 25.5355 11.4645C24.5979 10.5268 23.3261 10 22 10C20.6739 10 19.4021 10.5268 18.4645 11.4645C17.5268 12.4021 17 13.6739 17 15C17 16.3261 17.5268 17.5979 18.4645 18.5355C19.4021 19.4732 20.6739 20 22 20C23.3261 20 24.5979 19.4732 25.5355 18.5355C26.4732 17.5979 27 16.3261 27 15ZM14 15C14 12.8783 14.8429 10.8434 16.3431 9.34315C17.8434 7.84285 19.8783 7 22 7C24.1217 7 26.1566 7.84285 27.6569 9.34315C29.1571 10.8434 30 12.8783 30 15C30 17.1217 29.1571 19.1566 27.6569 20.6569C26.1566 22.1571 24.1217 23 22 23C19.8783 23 17.8434 22.1571 16.3431 20.6569C14.8429 19.1566 14 17.1217 14 15ZM11.0812 36H32.9188C32.3625 32.0438 28.9625 29 24.8563 29H19.1438C15.0375 29 11.6375 32.0438 11.0812 36ZM8 37.1437C8 30.9875 12.9875 26 19.1438 26H24.8563C31.0125 26 36 30.9875 36 37.1437C36 38.1687 35.1687 39 34.1437 39H9.85625C8.83125 39 8 38.1687 8 37.1437Z" fill="white"/>
</g>
<defs>
<clipPath id="clip0_39_103">
<rect width="28" height="32" fill="white" transform="translate(8 7)"/>
</clipPath>
</defs>
</svg>
